<svg xmlns="http://www.w3.org/2000/svg" viewBox="0 0 72 72" fill="none">
  <rect width="72" height="72" rx="16" fill="#090D0A"/>
  <circle cx="36" cy="36" r="31" stroke="#C9FF70" stroke-opacity=".72" stroke-width="1.5"/>
  <circle cx="36" cy="36" r="24" stroke="#C9FF70" stroke-opacity=".2" stroke-width="1" stroke-dasharray="2 3"/>
  <path d="M36 10A26 26 0 0 0 10 36h13a13 13 0 0 1 13-13V10Z" fill="#C9FF70"/>
  <path d="M62 36A26 26 0 0 0 36 10v13a13 13 0 0 1 13 13h13Z" fill="#C9FF70" opacity=".55"/>
  <path d="M36 62A26 26 0 0 0 62 36H49a13 13 0 0 1-13 13v13Z" fill="#C9FF70"/>
  <path d="M10 36A26 26 0 0 0 36 62V49a13 13 0 0 1-13-13H10Z" fill="#C9FF70" opacity=".55"/>
  <rect x="31" y="31" width="10" height="10" rx="1" fill="#F3EFE2"/>
</svg>
